<svg xmlns="http://www.w3.org/2000/svg" viewBox="0 0 48 48" width="48" height="48">
  <circle cx="24" cy="24" r="24" fill="#25D366"/>
  <path fill="#ffffff" d="M24 10C16.27 10 10 16.27 10 24c0 2.52.68 4.88 1.86 6.92L10 38l7.28-1.82A13.93 13.93 0 0 0 24 38c7.73 0 14-6.27 14-14S31.73 10 24 10zm6.94 19.39c-.29.82-1.7 1.57-2.33 1.67-.6.09-1.36.13-2.19-.14a20.1 20.1 0 0 1-1.98-.73c-3.49-1.51-5.77-5.04-5.94-5.27-.17-.23-1.37-1.82-1.37-3.47s.87-2.46 1.18-2.8c.31-.34.67-.42.9-.42.22 0 .45.01.64.01.21.01.49-.08.76.58.29.68 1 2.43 1.09 2.6.09.17.15.37.03.6-.12.22-.18.36-.35.56-.17.2-.36.44-.51.59-.17.17-.35.35-.15.69.2.34.9 1.48 1.93 2.4 1.33 1.18 2.45 1.55 2.79 1.72.34.17.54.14.74-.08.2-.22.87-1.01 1.1-1.36.23-.34.46-.28.77-.17.31.11 1.97.93 2.31 1.1.34.17.56.25.65.39.08.14.08.82-.21 1.63z"/>
</svg>
